<svg width="500" height="160" viewBox="0 0 500 160" fill="none" xmlns="http://www.w3.org/2000/svg">
<g clip-path="url(#clip0_505_132)">
<rect width="160" height="160" rx="80" fill="#992CFF"/>
<path d="M81.6925 29.2757C81.6451 28.4101 80.9348 27.7294 80.068 27.7189C79.2011 27.7083 78.4745 28.3716 78.406 29.2357L75.259 68.9629L58.1841 55.9949C57.5266 55.4955 56.6009 55.5602 56.0192 56.1461C55.4374 56.732 55.3793 57.6581 55.8834 58.312L69.0048 75.3369L28.1119 78.4001C27.2446 78.4651 26.5773 79.1931 26.588 80.0628C26.5987 80.9324 27.2837 81.6439 28.1523 81.6875L67.6434 83.6727L30.5655 126.974C30.0063 127.627 30.0435 128.6 30.6509 129.209C31.2583 129.817 32.2315 129.856 32.8856 129.298L76.2032 92.3432L78.3067 130.714C78.3542 131.58 79.0645 132.261 79.9313 132.271C80.7981 132.282 81.5248 131.618 81.5932 130.754L84.7402 91.0274L101.815 103.998C102.472 104.497 103.396 104.433 103.978 103.849C104.56 103.265 104.62 102.34 104.119 101.685L91.0793 84.6537L131.888 81.5931C132.755 81.528 133.422 80.8 133.411 79.9304C133.401 79.0608 132.716 78.3494 131.847 78.3056L92.3557 76.3175L129.434 33.0161C129.993 32.3631 129.956 31.3898 129.348 30.7813C128.741 30.1728 127.768 30.1338 127.114 30.6918L83.7961 67.6467L81.6925 29.2757Z" fill="white"/>
</g>
<path d="M221.74 123.16L196 40H220.42L232.96 86.86L246.82 40H262.66L276.52 86.86L289.06 40H313.48L287.74 123.16H268.6L254.74 76.96L240.88 123.16H221.74Z" fill="white"/>
<path d="M352.435 102.7L373.555 104.68C370.387 114.58 361.015 124.48 344.515 124.48C326.035 124.48 312.175 110.62 312.175 92.8C312.175 74.98 326.035 61.12 344.515 61.12C361.675 61.12 375.535 74.188 375.535 92.14C375.535 93.856 375.271 95.44 375.139 96.628L374.875 98.74H334.615C335.011 100.192 335.671 101.512 336.595 102.7C338.047 104.68 340.423 106.66 344.515 106.66C347.551 106.66 349.531 105.736 350.719 104.68C351.379 104.152 352.039 103.492 352.435 102.7ZM334.615 86.86H354.415C353.755 82.24 349.795 78.28 344.515 78.28C339.235 78.28 335.275 82.24 334.615 86.86Z" fill="white"/>
<path d="M376.232 123.16L396.032 92.14L378.212 62.44H400.652L409.232 78.28L417.812 62.44H440.252L422.432 92.14L442.232 123.16H419.132L409.232 106L399.332 123.16H376.232Z" fill="white"/>
<path d="M499.053 123.16H483.873L482.553 120.916L480.573 117.22C478.989 118.672 477.273 119.86 475.425 120.916C472.257 122.896 467.637 124.48 462.753 124.48C450.213 124.48 442.293 116.56 442.293 106.66C442.293 95.572 451.533 86.2 477.933 86.2C477.933 81.58 475.293 78.94 471.993 78.94C469.353 78.94 467.637 80.128 466.713 81.316C466.053 81.976 465.657 82.768 465.393 83.56L444.933 81.58C445.593 77.752 447.177 74.452 449.421 71.416C453.249 66.136 460.113 61.12 472.653 61.12C488.493 61.12 499.053 71.68 499.053 86.2V123.16ZM477.933 99.4V97.42C465.921 97.42 463.413 100.06 463.413 104.02C463.413 106.66 465.261 108.64 469.353 108.64C473.973 108.64 477.933 104.68 477.933 99.4Z" fill="white"/>
<defs>
<clipPath id="clip0_505_132">
<rect width="160" height="160" fill="white"/>
</clipPath>
</defs>
</svg>
